<svg version="1.1" id="Layer_1" xmlns="http://www.w3.org/2000/svg" xmlns:xlink="http://www.w3.org/1999/xlink" x="0px" y="0px"
	 width="100%" viewBox="0 0 1024 1024" enable-background="new 0 0 1024 1024" xml:space="preserve">
<path fill="#000000" opacity="1.000000" stroke="none" 
	d="
M655.085754,564.858521 
	C705.600647,589.442200 756.096619,613.204346 806.633545,636.880615 
	C824.887024,645.432312 843.178650,653.905151 861.346802,662.634949 
	C868.475159,666.060242 875.131958,668.032471 881.736450,659.336792 
	C881.736450,673.117676 881.736450,685.402039 881.736450,697.684875 
	C880.666016,697.986694 880.121582,697.463562 879.856079,696.567383 
	C877.504211,688.627380 871.873596,683.625549 864.756104,680.152893 
	C835.559021,665.907532 806.275085,651.839783 777.101196,637.547241 
	C732.810852,615.849121 687.883667,595.503784 643.322998,574.380554 
	C640.777649,573.174011 638.139771,572.162292 634.536438,570.631409 
	C637.725708,574.805481 641.528015,576.427185 644.824097,578.561340 
	C715.731567,624.470947 787.568970,668.910339 858.998535,713.995056 
	C866.574097,718.776550 873.703552,722.176270 881.771484,713.274353 
	C881.771484,728.594788 881.771484,742.656128 881.771484,756.717468 
	C881.486572,756.774536 881.201721,756.831543 880.916809,756.888550 
	C879.382324,753.710144 878.132202,750.351807 876.256897,747.389221 
	C871.715698,740.214966 865.289429,734.953796 858.204285,730.394897 
	C804.820862,696.046204 751.544983,661.529419 698.049805,627.355835 
	C675.590881,613.008606 652.684204,599.362122 629.970886,585.413696 
	C629.049622,584.847900 628.023438,584.453003 626.492432,584.805176 
	C632.010742,589.534973 637.494263,594.306091 643.052795,598.988220 
	C699.002075,646.115479 755.746399,692.273682 812.740784,738.126526 
	C828.190308,750.555908 843.660278,762.959900 859.136230,775.356323 
	C861.869568,777.545654 864.639343,779.760803 868.154297,780.552795 
	C873.931091,781.854431 877.901062,778.905945 881.804199,774.724121 
	C881.804199,791.371216 881.804199,808.018250 881.804199,824.646240 
	C880.243591,825.005737 879.992554,823.973755 879.772034,822.990356 
	C877.360535,812.237732 870.984863,803.941101 862.786011,797.143982 
	C801.213928,746.098572 739.559998,695.151611 677.866699,644.252625 
	C658.845032,628.559265 639.627258,613.103577 620.482849,597.559204 
	C618.307495,595.792969 616.025330,594.158020 612.981445,593.219910 
	C615.423218,595.979370 617.785400,598.814209 620.318665,601.486938 
	C658.947144,642.242188 697.562256,683.010071 736.253967,723.705200 
	C772.997681,762.351379 810.337158,800.417725 848.039429,838.128479 
	C849.099915,839.189209 850.148865,840.262024 851.228271,841.303162 
	C861.384888,851.098694 870.623718,851.487183 881.116272,842.498535 
	C883.118408,843.982666 882.257629,846.164307 882.269104,847.988220 
	C882.360413,862.487244 882.339966,876.987061 882.324280,891.486633 
	C882.315857,899.243347 879.767700,902.042480 871.908020,902.236389 
	C862.746826,902.462402 853.576782,902.350342 844.410583,902.349426 
	C625.250000,902.327515 406.089264,902.161194 186.929138,902.471375 
	C162.584503,902.505798 144.003601,885.383423 144.029251,859.502747 
	C144.135193,752.505249 143.888290,645.506836 144.265640,538.510498 
	C144.360809,511.525696 143.616486,484.547363 144.117081,457.566040 
	C144.311783,447.071991 144.404709,436.575043 144.713943,426.084412 
	C145.110794,412.620972 154.774399,401.699066 167.983994,399.196686 
	C172.640289,398.314636 176.727264,400.696503 181.237091,401.042969 
	C182.319992,397.744141 181.759125,394.583069 181.719086,391.462738 
	C181.689560,389.161316 179.859711,388.495422 178.105255,387.881836 
	C172.759949,386.012360 167.399002,384.187683 162.050507,382.327301 
	C146.536499,376.930939 143.119827,364.651733 145.264008,351.241058 
	C146.550217,343.196472 154.293625,339.488525 162.198349,342.619232 
	C168.362808,345.060699 174.385071,347.861206 180.467514,350.500824 
	C183.770950,342.828766 182.336166,338.897552 175.576431,335.381592 
	C169.233032,332.082123 162.477188,329.550476 156.711761,325.161316 
	C146.635788,317.490570 141.750702,303.213806 145.143555,291.115723 
	C147.306519,283.403107 156.026443,280.183929 163.891647,284.444397 
	C169.562744,287.516327 175.023712,290.976105 180.667786,294.315765 
	C183.593582,285.887054 182.293625,281.858887 175.765945,277.626282 
	C171.292862,274.725922 166.871124,271.745605 162.450546,268.765259 
	C146.282227,257.864655 142.675995,241.899292 145.048508,223.953506 
	C146.182312,215.377380 156.600586,211.883514 164.477753,216.995087 
	C167.543091,218.984192 170.301651,221.442230 173.234314,223.640854 
	C175.863586,225.612015 178.539993,227.520279 181.303360,229.534851 
	C185.168869,219.868469 184.844513,218.353088 177.807266,212.546860 
	C173.694336,209.153366 169.429657,205.938370 165.400208,202.450195 
	C151.802444,190.678955 144.544022,175.933395 144.685181,157.758270 
	C144.747314,149.758926 144.765198,141.757904 144.669800,133.759232 
	C144.625076,130.009293 145.217041,126.601051 149.086090,125.073784 
	C153.209427,123.446136 156.963043,124.464798 160.060806,127.630127 
	C169.035294,136.800339 177.988602,145.991318 186.944550,155.179642 
	C200.552994,169.141190 214.339279,182.936188 227.670380,197.157791 
	C232.829590,202.661621 238.714859,199.763031 245.319244,201.005646 
	C241.428864,195.145920 237.024933,191.339264 233.120514,187.144699 
	C220.404724,173.483978 207.547531,159.953522 194.634048,146.479050 
	C190.512436,142.178375 188.079285,137.422150 190.367493,131.603287 
	C192.762451,125.512917 198.083878,123.694649 204.165024,123.723251 
	C210.159424,123.751450 216.218094,123.409378 222.133194,124.150551 
	C233.397064,125.561920 242.510452,131.363968 249.600082,140.047943 
	C265.299957,159.278503 280.788635,178.681534 296.343170,198.030502 
	C296.944000,198.777893 297.335510,199.693573 298.545837,201.765732 
	C282.218475,201.765732 266.779205,201.765732 251.339951,201.765732 
	C251.102921,202.364273 250.865891,202.962830 250.628860,203.561371 
	C318.705170,275.378143 386.527283,347.431610 453.657013,420.224701 
	C429.675995,382.631439 403.964172,346.327393 377.735596,310.380341 
	C351.441559,274.343567 325.157532,238.299469 298.701355,202.028580 
	C302.663635,199.453156 306.880035,201.605850 310.681244,200.256592 
	C311.315155,198.123154 309.490112,197.001251 308.503754,195.659943 
	C296.361023,179.147797 284.140350,162.693039 271.960083,146.208450 
	C270.182495,143.802719 268.287415,141.436935 267.786743,138.343628 
	C266.541748,130.651627 271.963501,124.535698 280.526825,123.739708 
	C298.740051,122.046730 312.374451,128.341370 321.651001,144.844864 
	C331.439850,162.259872 342.417480,179.007431 352.905945,196.027985 
	C356.094757,201.202789 359.968597,202.139847 368.158539,199.818054 
	C368.342102,197.186462 366.832306,195.108688 365.692719,192.956726 
	C357.350433,177.203735 348.948273,161.482422 340.582703,145.741730 
	C338.853363,142.487793 337.323975,139.184372 337.712463,135.311646 
	C338.242004,130.033066 342.118866,125.141792 347.786133,124.347916 
	C363.242950,122.182709 375.610474,123.825180 383.834900,142.019196 
	C391.309875,158.555161 397.818481,175.525940 404.889343,192.247391 
	C408.895538,201.721313 410.007111,202.154984 421.669708,199.946854 
	C419.703003,193.939117 417.802094,187.994354 415.811432,182.079788 
	C411.561005,169.450867 407.036163,156.909058 403.051575,144.197433 
	C399.217712,131.966782 405.451416,123.869881 418.281982,123.755074 
	C434.349945,123.611290 441.765625,129.497528 445.417694,145.110855 
	C449.094330,160.829163 452.795624,176.542587 456.638245,192.220871 
	C458.965790,201.717621 460.425171,202.421722 471.317017,199.799927 
	C469.931793,190.719650 468.569794,181.559769 467.128784,172.412354 
	C465.729980,163.533203 464.086609,154.689575 462.845886,145.789215 
	C461.170227,133.768616 466.723175,125.430809 477.089783,123.913979 
	C492.172180,121.707138 502.809143,127.774277 504.271118,140.401794 
	C505.819489,153.775360 506.339935,167.268799 507.271667,180.712479 
	C507.639923,186.026138 508.018616,191.343536 508.175781,196.665634 
	C508.263397,199.632172 509.464813,200.984741 512.433167,200.726715 
	C512.928955,200.683624 513.432495,200.729294 513.932434,200.733414 
	C521.671021,200.797226 521.673279,200.797211 521.671509,193.248856 
	C521.667603,177.082535 521.675781,160.916199 521.649658,144.749924 
	C521.635742,136.118195 525.100525,129.264755 533.080505,125.869034 
	C541.570374,122.256378 550.450317,121.951149 558.214355,127.902580 
	C563.373596,131.857376 564.760193,137.841751 564.161804,144.111618 
	C562.785828,158.530029 561.218445,172.930161 559.741211,187.338974 
	C559.503479,189.657074 559.069519,191.996521 559.199890,194.299286 
	C559.332458,196.640747 556.716064,200.498932 561.869690,200.663010 
	C570.880493,200.949905 571.319580,200.853546 572.020325,195.735367 
	C574.321655,178.926865 577.146606,162.190491 579.724182,145.419312 
	C582.668518,126.262100 599.100891,120.383369 614.477783,125.198769 
	C621.720337,127.466820 625.033447,135.365524 622.814697,144.335312 
	C618.697510,160.979996 614.225098,177.536713 609.928894,194.137375 
	C609.438660,196.031799 609.129272,197.973038 608.702393,200.057220 
	C612.549072,201.188614 616.036499,200.677551 619.470032,200.575165 
	C622.081970,200.497284 622.332703,198.112625 622.927490,196.269287 
	C628.194336,179.945801 633.573242,163.656326 638.627502,147.266876 
	C645.257141,125.768654 661.405945,121.185204 679.702698,124.470772 
	C688.127014,125.983543 691.305603,132.969666 687.695923,141.411469 
	C680.558960,158.102493 673.024536,174.623444 665.674805,191.223740 
	C664.475464,193.932556 662.972656,196.544632 662.614319,199.547775 
	C670.683167,202.760681 675.254272,201.170990 678.765198,194.023056 
	C686.401367,178.476425 693.887390,162.853683 701.718628,147.405930 
	C709.606812,131.845840 722.705261,123.923454 739.963989,123.777985 
	C774.294128,123.488625 808.643311,124.298683 842.955200,123.457024 
	C862.025696,122.989243 883.129822,135.979691 882.944275,163.063065 
	C882.737610,193.223450 882.948669,223.382919 882.540161,253.546463 
	C882.043762,290.206207 882.315247,326.876709 882.297485,363.542542 
	C882.252747,455.707062 882.235413,547.871582 882.174866,640.036072 
	C882.173828,641.594849 882.840149,643.359558 881.069214,644.976379 
	C878.925232,642.476440 877.924683,639.239807 875.435303,637.083374 
	C871.974915,634.085938 868.128967,631.908875 863.769531,630.520325 
	C797.757812,609.494019 732.533447,586.077881 666.383179,565.471802 
	C659.890930,563.449402 653.596558,560.770081 646.511658,560.122986 
	C649.257751,561.650024 652.003784,563.177002 655.085754,564.858521 
M644.550293,543.865967 
	C646.774597,544.561096 649.004456,545.239319 651.222473,545.954041 
	C705.260559,563.367371 759.291870,580.802063 813.341125,598.180786 
	C820.880249,600.604797 828.204712,599.552734 835.010071,595.688538 
	C846.354858,589.246948 850.570862,578.810059 850.577942,566.359436 
	C850.641296,455.397552 850.592041,344.435608 850.736572,233.473892 
	C850.760315,215.227982 837.324463,201.814545 819.490967,201.994995 
	C773.511841,202.460205 727.524353,202.154846 681.540649,202.004791 
	C677.667725,201.992157 675.489685,203.177887 673.785950,206.689270 
	C664.336731,226.163223 654.629944,245.511978 645.102051,264.948059 
	C613.069885,330.290985 580.204834,395.225769 549.055115,461.001312 
	C543.211182,473.341370 537.129150,485.568878 531.312561,497.921570 
	C528.455994,503.988007 529.763977,506.595123 535.892517,509.009644 
	C541.623840,511.267670 547.493225,513.016907 553.370056,514.845337 
	C583.570679,524.241882 613.654663,534.013306 644.550293,543.865967 
M427.569519,702.137024 
	C443.105164,667.856262 458.665924,633.586792 474.166107,599.289978 
	C482.258698,581.383789 490.563477,563.563599 498.185974,545.457703 
	C505.293793,528.574280 498.375671,513.186951 481.456085,506.521271 
	C479.596985,505.788879 477.734253,505.060730 475.847900,504.403168 
	C435.131989,490.209930 394.481415,475.825073 353.675232,461.896179 
	C308.613098,446.514587 263.409851,431.546509 218.260223,416.421753 
	C215.108246,415.365875 211.936752,414.362823 208.551941,414.224182 
	C191.585388,413.529175 177.244583,427.352478 177.273468,444.925568 
	C177.333954,481.743073 177.198578,518.560486 177.790375,555.379517 
	C177.960510,565.964111 180.580261,575.144409 185.872452,584.181335 
	C212.217133,629.167603 238.284119,674.316467 264.425751,719.421570 
	C286.893555,758.187683 309.365662,796.951477 331.748077,835.766846 
	C335.809601,842.810364 341.972992,846.624329 349.726532,846.371521 
	C357.497223,846.118103 363.460327,841.950317 366.862671,834.515747 
	C386.959167,790.602295 407.123901,746.720032 427.569519,702.137024 
M786.995117,855.534424 
	C792.713135,863.319153 798.356506,871.160156 804.164185,878.877441 
	C818.010071,897.276245 837.160522,901.911072 858.791748,899.299988 
	C865.208618,898.525391 868.940735,892.550842 868.109924,886.023438 
	C867.546692,881.598938 865.748596,877.751709 862.582947,874.537964 
	C817.934143,829.210938 774.265564,782.946777 730.646667,736.633423 
	C696.620544,700.505493 662.473999,664.490662 628.296570,628.505737 
	C619.295227,619.028259 610.420654,609.402527 600.421021,600.861816 
	C600.436829,601.595703 600.645508,602.179016 600.994324,602.660889 
	C621.593506,631.121155 642.038696,659.694946 662.857178,687.994019 
	C687.228638,721.122742 711.968384,753.980286 736.467712,787.015259 
	C753.230591,809.618408 769.855713,832.323669 786.995117,855.534424 
M706.261292,823.298645 
	C708.034058,826.506104 709.776184,829.730957 711.584656,832.918152 
	C720.053406,847.843018 728.251648,862.931335 737.101562,877.627075 
	C746.053040,892.491455 759.062500,900.509033 777.022949,898.909485 
	C786.075562,898.103333 791.117798,890.062744 787.654114,881.643921 
	C786.837585,879.659302 785.751892,877.736267 784.509338,875.983887 
	C776.125122,864.159180 767.754517,852.322876 759.214111,840.611023 
	C728.290344,798.203796 697.329468,755.823608 666.327698,713.473389 
	C642.706116,681.205139 619.014282,648.988220 595.309265,616.781189 
	C593.368347,614.144165 591.584412,611.284851 588.439331,609.636719 
	C626.051636,681.538635 666.724243,751.689209 706.261292,823.298645 
M509.778900,880.953491 
	C510.074921,872.635437 510.549011,864.319214 510.636475,855.998962 
	C511.042633,817.357117 511.626801,778.720825 512.525452,740.085205 
	C513.400879,702.448364 513.590820,664.795593 514.067627,627.149658 
	C514.118225,623.154846 514.074463,619.158875 514.074463,615.163513 
	C512.783630,616.590088 512.372681,618.015015 512.140869,619.468445 
	C506.823273,652.813416 501.453918,686.150452 496.241028,719.511902 
	C489.307556,763.884827 482.423157,808.265808 475.695923,852.670349 
	C474.228027,862.359558 472.230011,872.031250 472.167633,881.873108 
	C472.099945,892.546753 479.266235,899.282776 489.913513,899.049744 
	C499.853394,898.832214 506.733917,892.837402 509.778900,880.953491 
M524.152710,817.500000 
	C523.882141,837.646240 523.500244,857.791931 523.385193,877.939026 
	C523.322449,888.919861 530.514404,897.945129 539.576721,898.905518 
	C554.135193,900.448364 562.424866,891.299194 560.573547,876.059021 
	C557.525391,850.966980 554.694702,825.848694 551.696472,800.750488 
	C548.540710,774.333862 545.285156,747.929138 542.092957,721.516846 
	C538.620361,692.785217 535.245728,664.041443 531.645874,635.325867 
	C530.941345,629.705505 531.158447,623.872131 528.396667,618.498352 
	C525.321411,684.489990 524.982544,750.500488 524.152710,817.500000 
M569.195618,712.177673 
	C561.044495,680.636536 553.288391,648.987183 543.780640,617.803528 
	C542.616089,620.561584 543.115112,623.210999 543.412231,625.821655 
	C545.670471,645.659241 547.930359,665.497070 550.318359,685.319275 
	C553.363342,710.595947 556.485352,735.863525 559.654785,761.124878 
	C562.823792,786.382996 566.053772,811.633667 569.331726,836.877869 
	C571.237793,851.557129 573.077209,866.250793 575.361938,880.873108 
	C576.617554,888.909058 580.878113,895.122314 588.942261,898.001038 
	C598.268372,901.330261 607.769592,898.183167 610.937073,890.744568 
	C612.862427,886.222778 612.332886,881.684143 611.154602,877.057861 
	C597.224731,822.364380 583.344971,767.658203 569.195618,712.177673 
M369.655090,416.868713 
	C308.016174,377.240387 246.377258,337.612061 184.738342,297.983704 
	C184.289780,298.358002 183.841217,298.732330 183.392654,299.106628 
	C183.392654,311.377045 183.362686,323.647644 183.420258,335.917786 
	C183.430634,338.130920 185.353378,338.835388 187.007156,339.637848 
	C263.407135,376.708435 339.800354,413.793030 416.234131,450.793793 
	C419.151367,452.206024 421.988464,454.196289 426.599182,454.514954 
	C407.158081,441.664856 388.704987,429.467834 369.655090,416.868713 
M414.971436,310.456512 
	C396.249725,275.518188 377.549988,240.568588 357.935059,206.117126 
	C356.211731,203.090302 354.136169,201.935226 350.750305,201.990417 
	C340.922974,202.150620 331.091766,202.058472 321.262299,202.111984 
	C319.821991,202.119812 318.244934,201.735184 316.148682,203.847763 
	C366.872742,272.129456 415.901428,341.840393 466.030212,410.825775 
	C450.146301,376.981842 433.001617,343.906555 414.971436,310.456512 
M183.304657,379.387939 
	C183.639557,383.562958 181.874527,387.953339 188.292282,390.142914 
	C255.707642,413.143433 322.792389,437.108459 390.436768,459.443817 
	C399.005676,462.273193 407.601501,465.021027 416.184875,467.806610 
	C416.343201,467.402802 416.501526,466.998993 416.659882,466.595184 
	C340.013245,427.494934 262.116150,390.987061 183.302765,353.444427 
	C183.302765,362.837616 183.302765,370.626801 183.304657,379.387939 
M563.488464,399.979584 
	C596.125732,334.808228 628.886902,269.696198 659.647888,202.061905 
	C648.318481,202.061905 638.686890,202.384613 629.091431,201.935593 
	C623.711487,201.683838 621.528076,203.763977 620.007141,208.691193 
	C612.451355,233.169220 604.619995,257.563049 596.764221,281.947388 
	C584.011597,321.531555 571.275024,361.120209 559.414246,400.983337 
	C558.945557,402.558502 557.539795,404.271515 559.469971,406.411835 
	C561.284668,404.765015 562.128235,402.632599 563.488464,399.979584 
M447.337128,344.233612 
	C449.959045,349.249146 452.570160,354.270355 455.205841,359.278625 
	C457.842102,364.288025 460.489471,369.291626 463.156677,374.284576 
	C465.823395,379.276581 468.458466,384.287109 471.222656,389.224976 
	C473.856323,393.929688 475.783264,399.127777 480.104004,402.772308 
	C479.509491,399.048767 478.527527,395.548523 477.365204,392.109253 
	C463.827789,352.052643 449.365417,312.325562 434.646606,272.692169 
	C426.533691,250.846481 418.114563,229.114349 410.042480,207.253860 
	C408.585205,203.307312 406.445740,201.839188 402.308289,202.011887 
	C395.658295,202.289474 388.987274,202.022202 382.326416,202.098907 
	C379.272247,202.134094 376.130035,201.648682 372.259949,202.945801 
	C397.362305,250.179214 422.180023,296.877045 447.337128,344.233612 
M555.544556,368.185822 
	C572.961426,313.239532 591.281250,258.565063 606.621826,202.142288 
	C595.261414,202.142288 585.132690,202.106628 575.004456,202.164276 
	C572.012695,202.181305 571.789124,204.693512 571.453613,206.785355 
	C567.054321,234.218536 562.553528,261.636719 558.381897,289.104797 
	C553.609558,320.528198 549.021606,351.981140 544.657166,383.463348 
	C543.929810,388.710175 542.379211,394.077606 543.825867,401.022003 
	C548.990540,389.789246 551.675964,379.189972 555.544556,368.185822 
M433.399078,230.163376 
	C453.584167,286.434814 473.769257,342.706268 493.954346,398.977692 
	C494.480988,398.822601 495.007660,398.667542 495.534302,398.512451 
	C496.261688,396.289642 495.663605,394.062531 495.249847,391.835571 
	C490.053070,363.864075 484.928467,335.878906 479.641724,307.924408 
	C473.207092,273.900085 466.272034,239.976685 458.846741,206.153030 
	C458.173187,203.084824 456.637451,202.014374 453.693604,202.033981 
	C445.528046,202.088394 437.361176,201.957626 429.195953,202.030457 
	C424.156525,202.075394 423.747131,202.755966 425.490204,207.751190 
	C428.014282,214.984711 430.620911,222.189438 433.399078,230.163376 
M547.424316,202.049393 
	C541.758728,202.044708 536.093201,202.026276 530.427612,202.038757 
	C523.177795,202.054733 523.179321,202.065445 523.216553,209.107056 
	C523.361816,236.596375 523.281982,264.084656 524.003174,291.572327 
	C524.702271,318.215942 524.880859,344.872986 525.357544,371.522888 
	C525.488647,378.847778 525.845398,386.169250 526.158569,393.489716 
	C526.210815,394.710297 525.731995,396.220825 527.776489,397.137054 
	C529.039001,395.151855 529.293091,392.856079 529.634949,390.628784 
	C533.519348,365.322357 537.366455,340.010223 541.243652,314.702698 
	C546.733398,278.869049 551.905823,242.990646 556.579651,207.040588 
	C557.015259,203.690048 556.016663,201.882462 552.391846,202.071304 
	C551.063293,202.140518 549.726746,202.056351 547.424316,202.049393 
M499.363251,202.049728 
	C492.038116,202.028168 484.712921,202.022675 477.387939,201.977005 
	C474.529053,201.959183 473.009857,202.826065 473.632660,206.142380 
	C476.484558,221.327454 479.105835,236.556137 482.001038,251.732697 
	C490.406097,295.792206 498.877960,339.839050 507.406128,383.874847 
	C508.173370,387.836700 508.269257,392.071228 510.811096,395.815308 
	C512.288696,393.962158 511.797974,392.071503 511.774475,390.346069 
	C511.552704,374.038086 511.614838,357.732574 511.170746,341.419617 
	C509.970581,297.337189 509.352325,253.239227 507.730927,209.166351 
	C507.473206,202.160645 507.604492,202.155823 499.363251,202.049728 
z"/>
</svg>